<?xml version="1.0" encoding="UTF-8" standalone="no"?>
<svg
   height="800"
   width="1200"
   xml:space="preserve"
   y="0"
   x="0"
   id="Capa_1"
   version="1.1"
   viewBox="-36 -58.5 312 351"
   sodipodi:docname="Illustrator.svg"
   xmlns:inkscape="http://www.inkscape.org/namespaces/inkscape"
   xmlns:sodipodi="http://sodipodi.sourceforge.net/DTD/sodipodi-0.dtd"
   xmlns="http://www.w3.org/2000/svg"
   xmlns:svg="http://www.w3.org/2000/svg"><defs
     id="defs1" /><sodipodi:namedview
     id="namedview1"
     pagecolor="#ffffff"
     bordercolor="#000000"
     borderopacity="0.25"
     inkscape:showpageshadow="2"
     inkscape:pageopacity="0.0"
     inkscape:pagecheckerboard="0"
     inkscape:deskcolor="#d1d1d1" /><style
     id="style3248"
     type="text/css">.st1{fill:#ff7c00}</style><g
     id="g3256"><path
       id="path3250"
       d="M 10,10 H 230 V 224 H 10 Z"
       fill="#261300" /><path
       id="path3252"
       d="M 0,0 V 234 H 240 V 0 Z M 10,10 H 230 V 224 H 10 Z"
       class="st1" /><path
       id="path3254"
       d="m 83.3,132.5 -7.9,30 c -0.2,0.8 -0.5,1 -1.5,1 H 59.2 c -1,0 -1.2,-0.3 -1,-1.5 L 86.6,62.6 c 0.5,-1.8 0.8,-3.4 1,-8.3 0,-0.7 0.3,-1 0.8,-1 h 21 c 0.7,0 1,0.2 1.2,1 l 31.8,107.9 c 0.2,0.8 0,1.3 -0.8,1.3 H 125 c -0.8,0 -1.3,-0.2 -1.5,-0.9 l -8.3,-30.1 z m 27.8,-16.2 C 108.3,105.2 101.7,81 99.2,69.3 H 99 c -2.1,11.7 -7.4,31.5 -11.6,47 z m 45,-55.6 c 0,-6.4 4.5,-10.2 10.2,-10.2 6.1,0 10.2,4.1 10.2,10.2 0,6.6 -4.3,10.2 -10.4,10.2 -5.8,0 -10,-3.6 -10,-10.2 z m 1.2,22.7 c 0,-0.8 0.3,-1.2 1.2,-1.2 h 15.7 c 0.8,0 1.2,0.3 1.2,1.2 v 78.9 c 0,0.8 -0.2,1.2 -1.2,1.2 h -15.5 c -1,0 -1.3,-0.5 -1.3,-1.3 V 83.4 Z"
       class="st1" /></g></svg>
